<svg clip-rule="evenodd" fill-rule="evenodd" stroke-linejoin="round" stroke-miterlimit="2" viewBox="0 0 1109 548" xmlns="http://www.w3.org/2000/svg"><g fill="#fff" fill-rule="nonzero"><path d="m.36.01c-.064 0-.121-.015-.169-.046-.049-.03-.087-.073-.114-.129s-.041-.122-.041-.198c0-.077.014-.144.041-.2.027-.055.065-.099.112-.129.048-.03.103-.045.165-.045.039 0 .075.005.108.017.033.011.063.027.089.049.026.021.048.046.065.075s.03.061.036.096h-.09c-.008-.024-.018-.046-.031-.065s-.028-.035-.045-.049c-.018-.013-.037-.023-.059-.031-.022-.007-.046-.01-.073-.01-.042 0-.082.011-.117.033s-.063.055-.084.099c-.021.043-.032.097-.032.16s.011.116.032.159.05.076.086.098c.036.023.076.034.121.034.042 0 .079-.009.11-.027.032-.018.057-.043.074-.076.018-.033.027-.071.027-.116l.028.006h-.219v-.078h.277v.078c0 .06-.012.112-.038.156-.025.044-.06.078-.105.102-.045.025-.096.037-.154.037z" fill-opacity=".86" transform="matrix(466.105183048 0 0 466.105313557 50.408602 365.811553003)"/><path d="m.054-.728h.083v.728h-.083z" fill-opacity=".86" transform="matrix(466.105183048 0 0 466.105313557 374.952437906 365.811553003)"/><path d="m.054-0v-.546h.083v.546zm.042-.637c-.017 0-.031-.005-.042-.016-.012-.011-.018-.025-.018-.04 0-.016.006-.029.018-.04.011-.011.025-.017.042-.017.016 0 .03.006.042.017.011.011.017.024.017.04 0 .015-.006.029-.017.04-.012.011-.026.016-.042.016z" fill-opacity=".86" transform="matrix(466.105183048 0 0 466.105313557 463.712795278 365.811553003)"/><path d="m.259.012c-.046 0-.086-.012-.121-.035s-.062-.056-.081-.098c-.02-.043-.03-.093-.03-.15 0-.058.01-.107.03-.15.02-.042.047-.074.082-.097s.075-.035.121-.035c.036 0 .064.006.084.018.021.012.037.025.048.04.011.014.02.027.026.036h.007v-.269h.083v.728h-.08v-.084h-.01c-.006.01-.015.022-.026.037-.012.016-.028.029-.049.041s-.049.018-.084.018zm.011-.075c.033 0 .062-.009.085-.027s.041-.042.053-.074c.012-.031.018-.067.018-.108s-.006-.077-.018-.108-.029-.055-.052-.072c-.024-.017-.052-.026-.086-.026-.036 0-.065.01-.088.028-.024.018-.041.043-.053.074-.012.03-.018.065-.018.104 0 .038.006.073.018.105s.03.057.053.075c.024.019.053.029.088.029z" fill-opacity=".86" transform="matrix(466.105183048 0 0 466.105313557 552.47315265 365.811553003)"/><path d="m.282.012c-.052 0-.098-.012-.136-.035-.038-.024-.067-.057-.088-.099-.02-.042-.031-.091-.031-.147s.01-.105.031-.148c.02-.042.048-.076.085-.1.036-.024.079-.036.128-.036.029 0 .057.005.085.014.028.01.053.025.076.046s.042.049.055.084c.014.035.021.078.021.129v.036h-.421v-.072h.375l-.038.027c0-.037-.006-.069-.017-.097-.012-.029-.029-.051-.051-.067-.023-.016-.051-.025-.085-.025-.033 0-.062.009-.086.025-.024.017-.042.038-.055.064-.012.027-.019.055-.019.085v.048c0 .041.007.076.022.105.014.029.034.05.06.065s.055.023.089.023c.022 0 .042-.004.06-.01s.033-.016.046-.029.023-.029.03-.047l.081.023c-.008.027-.023.051-.043.072s-.045.037-.074.048c-.03.012-.063.018-.1.018z" fill-opacity=".86" transform="matrix(466.105183048 0 0 466.105313557 814.20428278 365.811553003)"/><g fill-opacity=".49"><path d="m.095-0h-.093l.268-.728h.09l.267.728h-.092l-.218-.612h-.005zm.034-.284h.372v.078h-.372z" transform="matrix(71.99972502 0 0 72.000000106 47.4059 485.20668914)"/><path d="m.137-.328v.328h-.083v-.546h.08v.086h.008c.012-.028.032-.05.058-.067s.059-.026.101-.026c.037 0 .069.008.096.023.028.015.05.037.065.068.016.03.023.069.023.115v.347h-.083v-.341c0-.042-.011-.076-.033-.1-.023-.024-.053-.037-.092-.037-.027 0-.051.006-.072.018s-.038.029-.05.051-.018.049-.018.081z" transform="matrix(71.99972502 0 0 72.000000106 92.68655 485.20668914)"/><path d="m.397-.223v-.323h.083v.546h-.083v-.093h-.005c-.013.028-.033.051-.06.071-.027.02-.061.029-.103.029-.034 0-.064-.008-.09-.022-.027-.015-.047-.038-.063-.068-.015-.031-.022-.07-.022-.116v-.347h.083v.342c0 .039.011.071.034.095.022.023.051.035.086.035.021 0 .042-.006.064-.016.021-.011.039-.027.054-.049s.022-.05.022-.084z" transform="matrix(71.99972502 0 0 72.000000106 148.3741118 485.20668914)"/><path d="m.054.204v-.75h.08v.087h.01c.006-.009.014-.022.025-.036.012-.015.027-.028.048-.04s.049-.018.085-.018c.046 0 .086.012.121.035s.062.055.082.097c.019.043.029.092.029.15 0 .057-.01.107-.029.15-.02.042-.047.075-.082.098-.034.023-.075.035-.12.035-.035 0-.063-.006-.084-.018s-.038-.025-.049-.041c-.011-.015-.02-.027-.026-.037h-.007v.288zm.238-.267c.035 0 .064-.01.087-.029.024-.018.041-.043.053-.075s.018-.067.018-.105c0-.039-.006-.074-.017-.104-.012-.031-.03-.056-.053-.074s-.053-.028-.088-.028c-.034 0-.063.009-.086.026s-.041.041-.052.072c-.012.031-.018.067-.018.108s.006.077.018.108c.012.032.03.056.053.074s.051.027.085.027z" transform="matrix(71.99972502 0 0 72.000000106 186.8353868 485.20668914)"/><path d="m.259.012c-.046 0-.086-.012-.121-.035s-.062-.056-.081-.098c-.02-.043-.03-.093-.03-.15 0-.058.01-.107.03-.15.02-.042.047-.074.082-.097s.075-.035.121-.035c.036 0 .064.006.084.018.021.012.037.025.048.04.011.014.02.027.026.036h.007v-.269h.083v.728h-.08v-.084h-.01c-.006.01-.015.022-.026.037-.012.016-.028.029-.049.041s-.049.018-.084.018zm.011-.075c.033 0 .062-.009.085-.027s.041-.042.053-.074c.012-.031.018-.067.018-.108s-.006-.077-.018-.108-.029-.055-.052-.072c-.024-.017-.052-.026-.086-.026-.036 0-.065.01-.088.028-.024.018-.041.043-.053.074-.012.03-.018.065-.018.104 0 .038.006.073.018.105s.03.057.053.075c.024.019.053.029.088.029z" transform="matrix(71.99972502 0 0 72.000000106 227.2650062 485.20668914)"/><path d="m.214.013c-.035 0-.066-.007-.094-.02-.029-.013-.051-.032-.068-.057-.016-.026-.025-.056-.025-.091 0-.032.007-.057.019-.076.012-.02.029-.035.049-.046.021-.011.044-.02.069-.025.025-.006.05-.01.075-.013.033-.005.06-.008.081-.01s.036-.006.045-.012c.01-.005.015-.015.015-.028v-.003c0-.035-.01-.062-.029-.081-.019-.02-.048-.03-.086-.03-.04 0-.071.009-.094.027-.023.017-.039.036-.048.056l-.08-.029c.014-.033.033-.059.057-.077.024-.019.05-.032.078-.04.029-.007.056-.011.084-.011.017 0 .037.002.06.006s.045.013.067.026.039.032.054.058c.014.026.021.06.021.104v.359h-.084v-.074h-.004c-.006.011-.015.024-.028.038-.014.013-.031.025-.053.034-.022.01-.049.015-.081.015zm.013-.076c.033 0 .061-.006.084-.019.022-.013.04-.03.051-.051.012-.02.018-.042.018-.064v-.077c-.004.004-.011.008-.023.011s-.026.006-.041.009c-.016.003-.031.005-.045.007-.015.001-.027.003-.036.004-.021.003-.042.007-.061.014-.019.006-.034.015-.045.028-.012.012-.018.029-.018.051 0 .029.011.05.033.065.021.015.049.022.083.022z" transform="matrix(71.99972502 0 0 72.000000106 267.6946256 485.20668914)"/><path d="m.29-.546v.071h-.282v-.071zm-.2-.13h.083v.52c0 .028.006.049.017.062.012.013.031.02.056.02.006 0 .011-.001.017-.001.006-.001.013-.002.02-.003l.018.075c-.008.003-.018.005-.029.007s-.022.003-.034.003c-.044 0-.079-.013-.107-.039-.027-.026-.041-.06-.041-.102z" transform="matrix(71.99972502 0 0 72.000000106 304.960055 485.20668914)"/><path d="m.282.012c-.052 0-.098-.012-.136-.035-.038-.024-.067-.057-.088-.099-.02-.042-.031-.091-.031-.147s.01-.105.031-.148c.02-.042.048-.076.085-.1.036-.024.079-.036.128-.036.029 0 .057.005.085.014.028.01.053.025.076.046s.042.049.055.084c.014.035.021.078.021.129v.036h-.421v-.072h.375l-.038.027c0-.037-.006-.069-.017-.097-.012-.029-.029-.051-.051-.067-.023-.016-.051-.025-.085-.025-.033 0-.062.009-.086.025-.024.017-.042.038-.055.064-.012.027-.019.055-.019.085v.048c0 .041.007.076.022.105.014.029.034.05.06.065s.055.023.089.023c.022 0 .042-.004.06-.01s.033-.016.046-.029.023-.029.03-.047l.081.023c-.008.027-.023.051-.043.072s-.045.037-.074.048c-.03.012-.063.018-.1.018z" transform="matrix(71.99972502 0 0 72.000000106 327.3537914 485.20668914)"/><path d="m.259.012c-.046 0-.086-.012-.121-.035s-.062-.056-.081-.098c-.02-.043-.03-.093-.03-.15 0-.058.01-.107.03-.15.02-.042.047-.074.082-.097s.075-.035.121-.035c.036 0 .064.006.084.018.021.012.037.025.048.04.011.014.02.027.026.036h.007v-.269h.083v.728h-.08v-.084h-.01c-.006.01-.015.022-.026.037-.012.016-.028.029-.049.041s-.049.018-.084.018zm.011-.075c.033 0 .062-.009.085-.027s.041-.042.053-.074c.012-.031.018-.067.018-.108s-.006-.077-.018-.108-.029-.055-.052-.072c-.024-.017-.052-.026-.086-.026-.036 0-.065.01-.088.028-.024.018-.041.043-.053.074-.012.03-.018.065-.018.104 0 .038.006.073.018.105s.03.057.053.075c.024.019.053.029.088.029z" transform="matrix(71.99972502 0 0 72.000000106 365.7441449 485.20668914)"/><path d="m.499-.546-.201.546h-.086l-.201-.546h.091l.15.436h.006l.15-.436z" transform="matrix(71.99972502 0 0 72.000000106 423.0487169 485.20668914)"/><path d="m.282.012c-.052 0-.098-.012-.136-.035-.038-.024-.067-.057-.088-.099-.02-.042-.031-.091-.031-.147s.01-.105.031-.148c.02-.042.048-.076.085-.1.036-.024.079-.036.128-.036.029 0 .057.005.085.014.028.01.053.025.076.046s.042.049.055.084c.014.035.021.078.021.129v.036h-.421v-.072h.375l-.038.027c0-.037-.006-.069-.017-.097-.012-.029-.029-.051-.051-.067-.023-.016-.051-.025-.085-.025-.033 0-.062.009-.086.025-.024.017-.042.038-.055.064-.012.027-.019.055-.019.085v.048c0 .041.007.076.022.105.014.029.034.05.06.065s.055.023.089.023c.022 0 .042-.004.06-.01s.033-.016.046-.029.023-.029.03-.047l.081.023c-.008.027-.023.051-.043.072s-.045.037-.074.048c-.03.012-.063.018-.1.018z" transform="matrix(71.99972502 0 0 72.000000106 458.346893 485.20668914)"/><path d="m.054-0v-.546h.08v.083h.006c.01-.027.028-.049.054-.066.026-.016.056-.025.088-.025.006 0 .014 0 .023.001h.021v.085c-.003 0-.009-.001-.019-.003-.01-.001-.021-.002-.033-.002-.026 0-.05.006-.07.017-.021.011-.038.026-.049.045-.012.02-.018.042-.018.066v.345z" transform="matrix(71.99972502 0 0 72.000000106 496.731791 485.20668914)"/><path d="m.439-.423-.075.021c-.007-.019-.019-.037-.037-.053-.017-.017-.044-.025-.081-.025-.033 0-.061.007-.083.023-.022.015-.033.034-.033.058 0 .02.007.037.023.049.015.013.038.023.071.031l.081.019c.048.012.084.03.108.054.024.025.036.056.036.094 0 .031-.009.059-.027.084-.018.024-.042.044-.074.058-.032.015-.069.022-.112.022-.055 0-.101-.012-.138-.037-.036-.024-.059-.06-.069-.106l.079-.019c.008.029.022.051.044.066.021.014.049.021.083.021.039 0 .07-.008.093-.025.024-.016.035-.036.035-.059 0-.039-.027-.065-.081-.078l-.091-.021c-.05-.012-.087-.031-.11-.055-.023-.025-.035-.056-.035-.094 0-.03.009-.058.026-.082.017-.023.041-.042.072-.055.03-.014.064-.021.102-.021.054 0 .097.012.128.036s.052.055.065.094z" transform="matrix(71.99972502 0 0 72.000000106 520.146797 485.20668914)"/><path d="m.054-0v-.546h.083v.546zm.042-.637c-.017 0-.031-.005-.042-.016-.012-.011-.018-.025-.018-.04 0-.016.006-.029.018-.04.011-.011.025-.017.042-.017.016 0 .03.006.042.017.011.011.017.024.017.04 0 .015-.006.029-.017.04-.012.011-.026.016-.042.016z" transform="matrix(71.99972502 0 0 72.000000106 554.396426 485.20668914)"/><path d="m.274.012c-.049 0-.092-.012-.129-.035-.037-.024-.066-.057-.087-.099-.02-.042-.031-.092-.031-.148s.011-.106.031-.149c.021-.042.05-.075.087-.099.037-.023.08-.035.129-.035.05 0 .093.012.13.035.037.024.066.057.087.099.021.043.031.093.031.149s-.01.106-.031.148-.05.075-.087.099c-.037.023-.08.035-.13.035zm0-.075c.038 0 .069-.01.093-.029s.042-.045.054-.076c.012-.032.017-.065.017-.102 0-.036-.005-.07-.017-.102s-.03-.057-.054-.076c-.024-.02-.055-.03-.093-.03-.037 0-.067.01-.091.03-.024.019-.042.044-.054.076s-.018.066-.018.102c0 .037.006.07.018.102.012.031.03.057.054.076s.054.029.091.029z" transform="matrix(71.99972502 0 0 72.000000106 568.100642 485.20668914)"/><path d="m.137-.328v.328h-.083v-.546h.08v.086h.008c.012-.028.032-.05.058-.067s.059-.026.101-.026c.037 0 .069.008.096.023.028.015.05.037.065.068.016.03.023.069.023.115v.347h-.083v-.341c0-.042-.011-.076-.033-.1-.023-.024-.053-.037-.092-.037-.027 0-.051.006-.072.018s-.038.029-.05.051-.018.049-.018.081z" transform="matrix(71.99972502 0 0 72.000000106 607.68575 485.20668914)"/><path d="m.274.012c-.049 0-.092-.012-.129-.035-.037-.024-.066-.057-.087-.099-.02-.042-.031-.092-.031-.148s.011-.106.031-.149c.021-.042.05-.075.087-.099.037-.023.08-.035.129-.035.05 0 .093.012.13.035.037.024.066.057.087.099.021.043.031.093.031.149s-.01.106-.031.148-.05.075-.087.099c-.037.023-.08.035-.13.035zm0-.075c.038 0 .069-.01.093-.029s.042-.045.054-.076c.012-.032.017-.065.017-.102 0-.036-.005-.07-.017-.102s-.03-.057-.054-.076c-.024-.02-.055-.03-.093-.03-.037 0-.067.01-.091.03-.024.019-.042.044-.054.076s-.018.066-.018.102c0 .037.006.07.018.102.012.031.03.057.054.076s.054.029.091.029z" transform="matrix(71.99972502 0 0 72.000000106 663.375494 485.20668914)"/><path d="m.296-.546v.071h-.294v-.071zm-.206.546v-.621c0-.031.007-.057.022-.078s.034-.037.057-.047c.024-.011.048-.016.074-.016.021 0 .038.002.051.005.013.004.023.007.029.01l-.024.072c-.004-.001-.01-.003-.018-.005-.007-.003-.017-.004-.029-.004-.028 0-.048.007-.06.022-.013.014-.019.034-.019.061v.601z" transform="matrix(71.99972502 0 0 72.000000106 702.960602 485.20668914)"/><path d="m.295.013c-.052 0-.097-.009-.135-.025-.038-.017-.068-.041-.09-.071s-.034-.065-.037-.105h.091c.003.028.012.05.028.068s.037.032.062.04c.025.009.052.014.081.014.033 0 .064-.006.09-.017.027-.011.049-.027.064-.046.016-.02.024-.044.024-.07 0-.024-.007-.044-.021-.059s-.031-.027-.053-.036c-.022-.01-.046-.018-.072-.025l-.089-.026c-.057-.016-.102-.039-.135-.07-.033-.03-.049-.07-.049-.119 0-.041.011-.076.033-.107.022-.03.051-.054.089-.071s.08-.025.126-.025c.047 0 .088.008.125.025.036.017.065.039.087.068.021.029.033.062.034.098h-.086c-.004-.036-.021-.064-.052-.083-.03-.02-.067-.03-.111-.03-.032 0-.06.005-.084.015-.024.011-.043.025-.056.043-.014.019-.02.039-.02.063 0 .026.008.046.024.062s.035.028.056.037c.022.009.042.016.06.021l.074.021c.018.005.039.012.063.021.023.008.046.02.067.035.022.015.04.034.054.058.014.023.021.052.021.086 0 .039-.011.074-.031.106-.021.032-.05.057-.089.076-.04.018-.087.028-.143.028z" transform="matrix(71.99972502 0 0 72.000000106 742.403867 485.20668914)"/><path d="m.274.012c-.049 0-.092-.012-.129-.035-.037-.024-.066-.057-.087-.099-.02-.042-.031-.092-.031-.148s.011-.106.031-.149c.021-.042.05-.075.087-.099.037-.023.08-.035.129-.035.05 0 .093.012.13.035.037.024.066.057.087.099.021.043.031.093.031.149s-.01.106-.031.148-.05.075-.087.099c-.037.023-.08.035-.13.035zm0-.075c.038 0 .069-.01.093-.029s.042-.045.054-.076c.012-.032.017-.065.017-.102 0-.036-.005-.07-.017-.102s-.03-.057-.054-.076c-.024-.02-.055-.03-.093-.03-.037 0-.067.01-.091.03-.024.019-.042.044-.054.076s-.018.066-.018.102c0 .037.006.07.018.102.012.031.03.057.054.076s.054.029.091.029z" transform="matrix(71.99972502 0 0 72.000000106 784.945856 485.20668914)"/><path d="m.214.013c-.035 0-.066-.007-.094-.02-.029-.013-.051-.032-.068-.057-.016-.026-.025-.056-.025-.091 0-.032.007-.057.019-.076.012-.02.029-.035.049-.046.021-.011.044-.02.069-.025.025-.006.05-.01.075-.013.033-.005.06-.008.081-.01s.036-.006.045-.012c.01-.005.015-.015.015-.028v-.003c0-.035-.01-.062-.029-.081-.019-.02-.048-.03-.086-.03-.04 0-.071.009-.094.027-.023.017-.039.036-.048.056l-.08-.029c.014-.033.033-.059.057-.077.024-.019.05-.032.078-.04.029-.007.056-.011.084-.011.017 0 .037.002.06.006s.045.013.067.026.039.032.054.058c.014.026.021.06.021.104v.359h-.084v-.074h-.004c-.006.011-.015.024-.028.038-.014.013-.031.025-.053.034-.022.01-.049.015-.081.015zm.013-.076c.033 0 .061-.006.084-.019.022-.013.04-.03.051-.051.012-.02.018-.042.018-.064v-.077c-.004.004-.011.008-.023.011s-.026.006-.041.009c-.016.003-.031.005-.045.007-.015.001-.027.003-.036.004-.021.003-.042.007-.061.014-.019.006-.034.015-.045.028-.012.012-.018.029-.018.051 0 .029.011.05.033.065.021.015.049.022.083.022z" transform="matrix(71.99972502 0 0 72.000000106 824.530964 485.20668914)"/><path d="m.054-0v-.546h.08v.083h.006c.01-.027.028-.049.054-.066.026-.016.056-.025.088-.025.006 0 .014 0 .023.001h.021v.085c-.003 0-.009-.001-.019-.003-.01-.001-.021-.002-.033-.002-.026 0-.05.006-.07.017-.021.011-.038.026-.049.045-.012.02-.018.042-.018.066v.345z" transform="matrix(71.99972502 0 0 72.000000106 861.792029 485.20668914)"/><path d="m.357.01c-.061 0-.117-.015-.165-.046-.049-.03-.087-.073-.114-.129-.028-.056-.042-.122-.042-.198 0-.077.014-.144.042-.2.027-.055.065-.099.114-.129.048-.03.104-.045.165-.045.037 0 .071.005.104.016.032.011.061.026.087.046.026.021.048.046.066.075.017.03.029.063.035.1h-.087c-.006-.025-.015-.048-.028-.067-.012-.019-.028-.035-.046-.048-.019-.014-.039-.024-.061-.03-.022-.007-.045-.01-.07-.01-.044 0-.083.011-.119.033s-.064.055-.085.099c-.021.043-.032.097-.032.16s.011.116.032.159.049.076.085.098c.036.023.075.034.119.034.025 0 .048-.004.07-.01.022-.007.042-.017.061-.03.018-.013.034-.029.046-.049.013-.019.022-.041.028-.067h.087c-.006.038-.018.071-.035.101-.018.029-.04.054-.066.074s-.055.036-.087.047c-.033.01-.067.016-.104.016z" transform="matrix(71.99972502 0 0 72.000000106 885.207035 485.20668914)"/><path d="m.054-.728h.083v.728h-.083z" transform="matrix(71.99972502 0 0 72.000000106 934.219247 485.20668914)"/><path d="m.054-0v-.546h.083v.546zm.042-.637c-.017 0-.031-.005-.042-.016-.012-.011-.018-.025-.018-.04 0-.016.006-.029.018-.04.011-.011.025-.017.042-.017.016 0 .03.006.042.017.011.011.017.024.017.04 0 .015-.006.029-.017.04-.012.011-.026.016-.042.016z" transform="matrix(71.99972502 0 0 72.000000106 947.934374 485.20668914)"/><path d="m.282.012c-.052 0-.098-.012-.136-.035-.038-.024-.067-.057-.088-.099-.02-.042-.031-.091-.031-.147s.01-.105.031-.148c.02-.042.048-.076.085-.1.036-.024.079-.036.128-.036.029 0 .057.005.085.014.028.01.053.025.076.046s.042.049.055.084c.014.035.021.078.021.129v.036h-.421v-.072h.375l-.038.027c0-.037-.006-.069-.017-.097-.012-.029-.029-.051-.051-.067-.023-.016-.051-.025-.085-.025-.033 0-.062.009-.086.025-.024.017-.042.038-.055.064-.012.027-.019.055-.019.085v.048c0 .041.007.076.022.105.014.029.034.05.06.065s.055.023.089.023c.022 0 .042-.004.06-.01s.033-.016.046-.029.023-.029.03-.047l.081.023c-.008.027-.023.051-.043.072s-.045.037-.074.048c-.03.012-.063.018-.1.018z" transform="matrix(71.99972502 0 0 72.000000106 961.63859 485.20668914)"/><path d="m.137-.328v.328h-.083v-.546h.08v.086h.008c.012-.028.032-.05.058-.067s.059-.026.101-.026c.037 0 .069.008.096.023.028.015.05.037.065.068.016.03.023.069.023.115v.347h-.083v-.341c0-.042-.011-.076-.033-.1-.023-.024-.053-.037-.092-.037-.027 0-.051.006-.072.018s-.038.029-.05.051-.018.049-.018.081z" transform="matrix(71.99972502 0 0 72.000000106 1000.034399 485.20668914)"/><path d="m.29-.546v.071h-.282v-.071zm-.2-.13h.083v.52c0 .028.006.049.017.062.012.013.031.02.056.02.006 0 .011-.001.017-.001.006-.001.013-.002.02-.003l.018.075c-.008.003-.018.005-.029.007s-.022.003-.034.003c-.044 0-.079-.013-.107-.039-.027-.026-.041-.06-.041-.102z" transform="matrix(71.99972502 0 0 72.000000106 1038.844826 485.20668914)"/></g></g></svg>