<svg clip-rule="evenodd" fill-rule="evenodd" stroke-linejoin="round" stroke-miterlimit="2" viewBox="0 0 500 500" xmlns="http://www.w3.org/2000/svg"><g fill="#fff"><path d="m251-1c137.979 0 250 112.245 250 250.5s-112.021 250.5-250 250.5-250-112.245-250-250.5 112.021-250.5 250-250.5zm0 41.473c115.135 0 208.61 93.662 208.61 209.027s-93.475 209.027-208.61 209.027-208.61-93.662-208.61-209.027 93.475-209.027 208.61-209.027z" transform="matrix(1 0 0 .998004 -1 .998004)"/><path d="m230.393 73.089c-5.798-1.663 3.414 1.105-5.335-1.63-12.926-4.04-28.366-5.459-38.058-5.459-76.716 0-139 75.054-139 167.5s62.284 167.5 139 167.5 139-75.054 139-167.5c0-5.433-.219-3.465-.657-8.87-.142-1.749-1.456-11.287-10.14-11.58-3.214-.108-4.637.098-4.637.098l-20.276 39.677s-.4 1.006-.452 1.381c-8.203 59.497-51.153 104.919-102.838 104.919-57.537 0-104.25-56.291-104.25-125.625s46.713-125.625 104.25-125.625c6.022 0 19.962 2.006 26.3 3.288 3.903.79 4.923.735 8.218 1.236 9.411 1.434 11.419-4.258 11.419-4.258l7.897-22.425s3.618-8.593-10.441-12.627z" transform="matrix(1.10143917941 -.29511731461 .24490293362 .9140286689 -12.6533483435 92.2614000569)"/><path d="m381.262 291.001 18.801-40.057-94.504-.944s-4.048-.107-6.851 2.054c-2.433 1.877-3.708 8.464-3.708 8.464v19.424s1.763 6.184 3.711 7.987c2.001 1.852 7.338 3.07 7.338 3.07z" transform="matrix(1.30178049779 -.34996356865 .25328456843 .94215784279 -200.006221016 98.118217406)"/></g></svg>